<svg width="42" height="44" viewBox="0 0 42 44" fill="none" xmlns="http://www.w3.org/2000/svg">
<path d="M20.933 0L0 7.285L3.308 34.408L20.955 44L38.693 34.278L42 7.156L20.933 0Z" fill="#9CA3AF" fill-opacity="0.8"/>
<path d="M39.818 8.52701L21 2.13501V41.695L36.832 33.017L39.818 8.52701Z" fill="#9CA3AF" fill-opacity="0.8"/>
<path d="M20.9409 2.11499L2.18091 8.64399L5.16791 33.143L20.9509 41.721L20.9999 41.695V2.13499L20.9409 2.11499Z" fill="#9CA3AF" fill-opacity="0.8"/>
<path d="M21 3.99609V13.5041L29.578 32.0001H33.987L21 3.99609Z" fill="#151515"/>
<path d="M8.01294 32.0001H12.4219L20.9999 13.5041V3.99609L8.01294 32.0001Z" fill="#151515"/>
<path d="M21 22H27V26H21V22Z" fill="#151515"/>
<path d="M15 22H21V26H15V22Z" fill="#151515"/>
</svg>
