<svg width="48" height="48" viewBox="0 0 48 48" fill="none" xmlns="http://www.w3.org/2000/svg">
<path d="M33.244 24.9999L24.123 12.9999H25.303C26.143 12.9999 26.934 13.3919 27.442 14.0609L34.501 23.3479L41.56 14.0609C42.067 13.3919 42.858 12.9999 43.698 12.9999H44.878L35.757 24.9999L45.304 37.5599H44.124C43.284 37.5599 42.493 37.1679 41.985 36.4989L34.5 26.6519L27.015 36.4989C26.507 37.1669 25.716 37.5599 24.876 37.5599H23.696L33.244 24.9999ZM4 25.9999V26.7829C4 30.9819 6.776 34.8149 10.868 35.7549C15.307 36.7749 19.358 34.5079 21.096 30.9129C21.366 30.3549 21.928 29.9999 22.547 29.9999H23.575C22.256 34.6549 17.959 38.0589 12.868 37.9989C6.777 37.9269 2 32.6939 2 26.1419V25.9999V23.9999V23.2839C2 17.8569 5.812 13.0109 11.171 12.1479C18.055 11.0389 24 16.3249 24 22.9999V25.9999H4ZM4 23.9999H22V22.9999C22 17.3519 16.798 12.9199 10.924 14.2319C6.804 15.1529 4 19.0019 4 23.7099V23.9999Z" fill="#9CA3AF" fill-opacity="0.8"/>
</svg>
