<svg width="84" height="73" viewBox="0 0 84 73" fill="none" xmlns="http://www.w3.org/2000/svg">
<path d="M82.4155 33.2492L45.75 1.37638C44.735 0.495055 43.3589 0 41.9241 0C40.4893 0 39.1132 0.495055 38.0981 1.37638L30.4744 7.997L40.1344 16.3921C45.2081 14.9028 50.0118 19.1248 48.27 23.5098L57.5812 31.6018C63.9993 29.679 69.0524 36.6532 64.2318 40.8394C59.2649 45.1559 51.0675 40.3717 53.7318 34.7549L45.0412 27.212V47.0673C49.785 49.1107 49.215 53.8867 46.7437 56.0295C45.5363 57.0782 43.8992 57.6673 42.1922 57.6673C40.4852 57.6673 38.848 57.0782 37.6406 56.0295C34.3463 53.1616 35.565 48.3856 39.75 46.9044V26.8616C35.85 25.4749 35.1375 21.8526 36.255 19.5289L26.7319 11.2429L1.58452 33.101C0.569957 33.9829 0 35.1789 0 36.4259C0 37.673 0.569957 38.869 1.58452 39.7509L38.2613 71.6238C39.276 72.505 40.6518 73 42.0863 73C43.5207 73 44.8965 72.505 45.9112 71.6238L82.4155 39.8992C83.43 39.0173 84 37.8213 84 36.5742C84 35.3271 83.43 34.1311 82.4155 33.2492Z" fill="#9CA3AF" fill-opacity="0.8"/>
</svg>
