<svg width="83" height="74" viewBox="0 0 83 74" fill="none" xmlns="http://www.w3.org/2000/svg">
<path d="M74.1071 0H8.89286C3.98326 0 0 3.55134 0 7.92857V66.0714C0 70.4487 3.98326 74 8.89286 74H74.1071C79.0167 74 83 70.4487 83 66.0714V7.92857C83 3.55134 79.0167 0 74.1071 0ZM45.1683 57.7134C45.1683 64.9152 40.4254 68.2022 33.515 68.2022C27.2714 68.2022 23.6587 65.3281 21.806 61.8429L28.1607 58.4237C29.3835 60.3563 30.4951 61.9915 33.1815 61.9915C35.7382 61.9915 37.3685 61.0995 37.3685 57.6143V33.9772H45.1683V57.7134ZM63.621 68.2022C56.377 68.2022 51.6897 65.1299 49.4109 61.0996L55.7656 57.829C57.433 60.2571 59.6192 62.0576 63.4542 62.0576C66.6779 62.0576 68.7529 60.6205 68.7529 58.6219C68.7529 56.2433 66.6408 55.4009 63.0652 53.9969L61.1199 53.2536C55.4877 51.1228 51.7638 48.4304 51.7638 42.7647C51.7638 37.5451 56.2288 33.5808 63.1763 33.5808C68.1415 33.5808 71.6987 35.117 74.2554 39.1473L68.1786 42.6161C66.8446 40.4853 65.3996 39.6429 63.1578 39.6429C60.879 39.6429 59.4339 40.9312 59.4339 42.6161C59.4339 44.6973 60.879 45.5397 64.2324 46.8446L66.1777 47.5879C72.8103 50.1152 76.5341 52.7085 76.5341 58.5228C76.5341 64.7665 71.0132 68.2022 63.621 68.2022Z" fill="#9CA3AF" fill-opacity="0.8"/>
</svg>
