<svg width="84" height="69" viewBox="0 0 84 69" fill="none" xmlns="http://www.w3.org/2000/svg">
<path d="M8.1069 0C4.64732 0 1.9135 1.50702 0.619023 4.11648C0.210441 4.92252 0.00382329 5.77733 4.76718e-06 6.65865C-0.00381375 9.5786 2.28724 11.9487 3.66191 13.3663C3.90247 13.6141 4.11894 13.8348 4.34805 14.1014L4.96706 14.7752C5.58185 15.437 6.28195 16.1876 6.50342 16.5639C6.57597 16.7364 6.67191 17.0389 6.80174 17.4215C7.40125 19.1936 8.52014 22.4869 10.2996 24.9929C11.0175 26.0028 12.0277 27.2722 12.7533 28.166C12.2683 30.1607 11.4481 33.8351 11.4481 36.0682C11.4481 39.9886 12.4379 43.1372 14.5954 46.0163C15.3935 47.0451 17.8289 50.1818 21.949 50.1818C23.4115 50.1818 25.8417 49.7126 26.4984 46.733C29.4196 49.8286 34.3592 53.7102 41.9963 56.4545C41.9963 56.4545 27.6799 42.7343 25.1635 34.1815C25.1635 34.1815 22.4249 36.4614 20.0994 41.1158C19.4045 39.6793 19.0851 38.0598 19.0851 36.0682C19.0851 34.1017 20.1383 29.7057 20.5469 28.1783L20.9049 26.849L19.9652 25.728C19.9499 25.706 18.0264 23.4252 16.8999 21.8382C15.6169 20.0316 14.6707 17.2361 14.1628 15.7369C13.9146 15.0062 13.7197 14.4773 13.5364 14.1198C12.8681 12.9311 11.8896 11.8871 11.0305 10.965L10.5531 10.4443C10.3126 10.1589 9.99474 9.82819 9.6358 9.4581C8.93701 8.73673 7.63615 7.39251 7.67434 6.53001L8.09944 6.28498L8.1069 6.27273C11.1426 6.27273 15.0531 8.04271 16.527 8.71076C17.0082 8.92717 17.3617 9.07669 17.5488 9.14569L18.2126 9.38459L19.5177 9.42134C21.2246 9.45271 26.4125 9.55238 30.0783 10.7567C36.7645 12.9522 40.4613 15.1498 44.2188 19.1612C53.093 28.6393 56.3672 40.9138 56.3978 41.0361L56.8751 42.8065L58.9633 43.3639C59.0359 43.3859 64.8804 44.99 70.3294 49.1833C63.4752 50.5759 61.0889 53.3182 61.0889 53.3182C61.0889 53.3182 62.9065 56.2287 71.5898 60.767C76.8403 63.5114 79.7042 65.4716 84 69C84 69 79.7068 61.1585 73.7079 54.9109C78.2748 53.7096 83.8881 53.0854 83.8881 53.0854L80.4127 49.1282C74.6925 42.614 67.0215 39.3264 63.371 38.0468C62.1033 34.0762 58.2745 23.8822 50.2747 15.3388C45.6963 10.4492 40.8243 7.52512 32.9124 4.92507C28.227 3.38825 22.5933 3.20492 20.0845 3.15474C17.8889 2.16365 13.0099 0 8.1069 0ZM23.6196 12.5455C23.6196 12.5455 21.949 12.5455 20.0398 12.9375L25.2902 18.8121C26.7222 17.2501 26.7222 15.4245 26.7222 15.4245C26.7222 15.4245 25.7695 13.3295 23.6196 12.5455Z" fill="#9CA3AF" fill-opacity="0.8"/>
</svg>
