<svg width="86" height="69" viewBox="0 0 86 69" fill="none" xmlns="http://www.w3.org/2000/svg">
<path d="M42.9808 69C41.6911 69 40.3823 68.7535 39.2466 68.288L27.3706 63.2905C25.5998 62.5785 26.466 62.3321 27.0434 62.1952C29.4109 61.6064 29.8921 61.4832 32.4136 60.4563C32.6831 60.3468 33.0295 60.3878 33.299 60.5111L42.4226 64.3585C42.7498 64.4954 43.2117 64.4954 43.5197 64.3585L79.0707 49.763C79.3979 49.6261 79.6097 49.3522 79.6097 49.0784V19.8874C79.6097 19.5999 79.3979 19.3397 79.0515 19.1891L43.5197 4.6073C43.1925 4.47038 42.7498 4.47038 42.4226 4.6073L6.91003 19.2028C6.56356 19.3397 6.35184 19.6136 6.35184 19.9011V49.0784C6.35184 49.3522 6.56356 49.6261 6.91003 49.7493L16.6495 53.7473C21.9427 55.6231 25.1764 53.4187 25.1764 51.1869V22.3793C25.1764 21.9685 25.6383 21.6536 26.2158 21.6536H30.7198C31.278 21.6536 31.7592 21.9685 31.7592 22.3793V51.2006C31.7592 56.2118 27.9096 59.0871 21.2305 59.0871C19.171 59.0871 17.5542 59.0871 13.0501 57.4989L3.73411 53.6788C1.42435 52.7341 0 50.9678 0 49.0647V19.8874C0 17.9979 1.42435 16.218 3.73411 15.2732L39.2466 0.677746C41.4987 -0.225915 44.4821 -0.225915 46.7149 0.677746L82.2659 15.2869C84.5757 16.2317 86 17.9979 86 19.9011V49.0784C86 50.9679 84.5757 52.7341 82.2659 53.6925L46.7149 68.288C45.5792 68.7535 44.2896 69 42.9808 69ZM71.6795 40.2335C71.6795 34.7704 66.4825 33.3191 55.5689 32.2922C44.5206 31.2516 43.4042 30.7176 43.4042 28.8829C43.4042 27.3631 44.3474 25.3367 52.5278 25.3367C59.8227 25.3367 62.5175 26.4595 63.6338 29.9646C63.7301 30.2932 64.1535 30.5396 64.6347 30.5396H69.2542C69.543 30.5396 69.8124 30.4575 70.0049 30.3069C70.1974 30.1563 70.2936 29.9509 70.2744 29.7455C69.5622 23.7074 63.9226 20.9006 52.5278 20.9006C42.3841 20.9006 36.3402 23.9402 36.3402 29.0472C36.3402 34.5787 42.3648 36.1122 52.085 36.7968C63.7301 37.6046 64.6347 38.8232 64.6347 40.4525C64.6347 43.273 61.4396 44.4779 53.9521 44.4779C44.5398 44.4779 42.4803 42.7938 41.7874 39.4667C41.7104 39.1107 41.2869 38.8506 40.7672 38.8506H36.167C35.5895 38.8506 35.1468 39.1792 35.1468 39.5762C35.1468 43.8344 38.3997 48.9141 53.9714 48.9141C65.2122 48.9004 71.6795 45.7376 71.6795 40.2335Z" fill="#9CA3AF" fill-opacity="0.8"/>
</svg>
