<svg width="48" height="48" viewBox="0 0 48 48" fill="none" xmlns="http://www.w3.org/2000/svg">
<path d="M44.083 29.7899C43.9 28.9609 43.148 27.9939 41.631 27.9939C41.321 27.9939 40.982 28.0329 40.596 28.1129C39.888 28.2589 39.285 28.3299 38.754 28.3539C42.887 21.3139 45.57 11.5349 42.913 8.13989C39.412 3.6669 34.699 2.9989 32.202 2.9989L31.967 2.9999C31.038 3.0149 30.074 3.1289 29.104 3.3389L25.521 4.1129C25.033 4.0519 24.536 4.0089 24.018 3.9999H23.988H23.972L23.82 3.9989C22.227 3.9989 20.774 4.3369 19.479 4.9719L18.228 4.4789C16.508 3.8009 13.92 2.9939 11.36 2.9939C11.216 2.9939 11.073 2.9969 10.929 3.0019C8.40699 3.0929 6.24099 4.0499 4.664 5.76889C2.696 7.91489 1.8 11.0539 2.003 15.0999C2.013 15.3089 4.46099 35.9999 11.4 35.9999H11.425L11.489 35.9989C12.39 35.9769 13.249 35.6149 14.052 34.9219C14.665 35.3819 15.458 35.6539 16.197 35.7619C16.685 35.8769 17.563 36.0399 18.615 36.0399C19.899 36.0399 21.057 35.7769 22.055 35.3019C22.054 36.1819 22.049 37.2959 22.039 38.7199L22.038 38.7949L22.043 38.8699C22.14 40.2889 22.385 41.5679 22.754 42.5709C23.805 45.4299 25.62 47.0049 27.865 47.0049C27.958 47.0049 28.053 47.0019 28.149 46.9959C29.995 46.8819 31.866 45.8449 33.153 44.2239C34.546 42.4689 34.868 40.6169 34.992 39.1979L35 39.1109V39.0229V34.9439L35.103 34.9539L35.539 34.9919L35.581 34.9959L35.623 34.9979C35.747 35.0039 35.875 35.0059 36.004 35.0059C37.511 35.0059 39.366 34.6149 40.62 34.0319C41.819 33.4759 44.559 31.9479 44.083 29.7899Z" fill="#151515"/>
<path d="M32.9999 33.9998C32.9999 33.7948 33.0119 33.6238 33.0179 33.4348C33.0079 33.1838 32.9999 32.9998 32.9999 32.9998C32.9999 32.9998 33.0119 32.9908 33.0319 32.9778C33.1809 30.3048 33.9179 29.2748 34.7069 28.6878C34.5969 28.5348 34.4699 28.3698 34.3509 28.2128C34.0179 27.7758 33.6029 27.2338 33.1589 26.5388L33.0769 26.3808C33.0099 26.2168 32.8479 25.9338 32.6419 25.5618C31.4589 23.4218 28.9969 18.9698 30.6819 16.1578C31.4199 14.9258 32.8039 14.2158 34.8029 14.0408C33.9859 11.7178 30.9249 6.11483 23.9849 5.99983C23.9829 5.99983 23.9809 5.99983 23.9789 5.99983C17.9379 5.90183 15.9529 11.3918 15.3069 14.6718C16.1969 14.2948 17.2129 14.0658 18.1429 14.0658C18.1569 14.0658 18.1719 14.0658 18.1859 14.0658C20.4759 14.0828 22.0509 15.3048 22.5089 17.4198C22.8439 18.9718 23.0049 20.3298 23.0009 21.5728C22.9909 24.2918 22.4429 25.7218 21.9589 26.9838L21.8049 27.3918C21.6809 27.7258 21.5499 28.0368 21.4259 28.3288C21.2999 28.6268 21.1889 28.8918 21.1079 29.1308C21.5919 29.2408 21.9719 29.3958 22.2329 29.5108L22.3839 29.5768C22.4309 29.5968 22.4779 29.6198 22.5209 29.6458C23.3689 30.1618 23.8969 30.9548 24.0099 31.8788C24.0709 32.3768 24.0609 35.7718 24.0399 38.7338C24.1269 40.0188 24.3449 41.0978 24.6329 41.8798C25.0419 42.9938 26.0639 45.1208 28.0269 44.9988C29.3969 44.9138 30.7139 44.0798 31.5879 42.9798C32.5259 41.7988 32.8719 40.4928 33.0019 39.0218V33.9998H32.9999Z" fill="#9CA3AF"/>
<path d="M15.1139 28.9168C13.5009 27.2338 12.7149 24.9698 13.0099 22.8609C13.2949 20.8259 13.1339 18.8339 13.0469 17.7629C13.0179 17.4059 12.9989 17.1399 12.9999 16.9929C12.9999 16.9849 13.0019 16.9779 13.0029 16.9699C13.0029 16.9659 13.0009 16.9629 13.0009 16.9589C13.1219 13.9379 14.2869 9.17186 17.4939 6.33886C15.9319 5.72386 13.3879 4.91286 10.9999 4.99986C7.25792 5.13586 3.63592 7.72386 3.99992 14.9999C4.13692 17.7299 7.22192 34.1028 11.4399 33.9998C12.0429 33.9848 12.6689 33.5978 13.3119 32.8238C14.3289 31.6008 15.3169 30.4918 16.0199 29.7198C15.7049 29.4808 15.4009 29.2168 15.1139 28.9168ZM37.0229 14.7309C37.0379 14.8849 37.0249 15.0169 37.0009 15.1389C37.0319 16.0589 36.9329 16.9519 36.8319 17.8159C36.7579 18.4519 36.6819 19.1089 36.6609 19.7679C36.6399 20.4129 36.7309 21.0499 36.8269 21.7239C37.0519 23.3019 37.2859 25.0828 36.0619 27.1608C36.2869 27.4568 36.4849 27.7318 36.6429 27.9978C41.2529 20.5229 43.1109 11.6369 41.3379 9.37186C38.6549 5.94386 34.9409 4.95186 31.9989 4.99986C31.0779 5.01486 30.2409 5.13886 29.5259 5.29386C34.6019 7.75386 36.8629 13.0259 37.0229 14.7309ZM40.9999 30.0708C38.3349 30.6208 37.0529 30.3278 36.4309 29.9448C36.3309 30.0168 36.2309 30.0778 36.1379 30.1348C35.7659 30.3598 35.1769 30.7178 35.0329 32.9168C35.1159 32.9328 35.1889 32.9418 35.2789 32.9608L35.7139 32.9998C37.0339 33.0598 38.7629 32.6898 39.7769 32.2188C41.9619 31.2048 43.1529 29.6268 40.9999 30.0708ZM22.0229 32.1188C21.9859 31.8208 21.8249 31.5798 21.5309 31.3868L21.4229 31.3398C21.0619 31.1808 20.6529 30.9998 19.9999 30.9998H19.9959C19.8689 31.0098 19.7429 31.0188 19.6159 31.0188C19.5639 31.0188 19.5129 31.0118 19.4609 31.0098C18.9869 31.3748 18.3129 31.6568 16.6449 31.9998C13.6649 32.7588 15.4239 33.6548 16.5669 33.7938C17.6729 34.0708 20.3019 34.4078 22.0479 32.9848C22.0429 32.5368 22.0349 32.2288 22.0229 32.1188Z" fill="#9CA3AF"/>
<path d="M20.6809 18.5009C20.3889 18.8029 19.9279 19.0669 19.4189 18.9849C18.5909 18.8509 17.9559 17.8519 18.0019 17.4769C18.0459 17.1029 18.7529 16.9079 19.5799 17.0419C19.8669 17.0889 20.1279 17.1699 20.3479 17.2699C20.0279 16.5819 19.4489 16.1849 18.5659 16.0879C17.0009 15.9139 15.3399 16.7319 15.0059 17.1849C15.0129 17.2949 15.0259 17.4359 15.0389 17.6019C15.1319 18.7489 15.3039 20.8859 14.9889 23.1389C14.7809 24.6239 15.3819 26.3079 16.5559 27.5339C17.3129 28.3239 18.1969 28.8239 19.0689 28.9719C19.1799 28.4939 19.3779 28.0279 19.5819 27.5469C19.6949 27.2819 19.8149 26.9999 19.9279 26.6949L20.0899 26.2679C20.5329 25.1129 20.9899 23.9179 20.9989 21.5649C21.0029 20.6599 20.8919 19.6269 20.6809 18.5009ZM34.8469 22.0069C34.7429 21.2779 34.6359 20.5229 34.6619 19.7039C34.6849 18.9619 34.7669 18.2619 34.8459 17.5849C34.9079 17.0519 34.9559 16.5399 34.9839 16.0349C33.6949 16.1419 32.8389 16.5139 32.4329 17.1429C32.6009 17.0859 32.7909 17.0409 33.0009 17.0139C33.8929 16.8979 34.5439 17.1549 34.6189 17.6509C34.6739 18.0139 34.3659 18.3559 34.2309 18.4869C33.9539 18.7559 33.6049 18.9289 33.2499 18.9749C33.1859 18.9829 33.1209 18.9869 33.0579 18.9869C32.7049 18.9869 32.3679 18.8659 32.1089 18.6869C32.2209 20.6599 33.6759 23.2989 34.3919 24.5939C34.5449 24.8709 34.6629 25.0919 34.7609 25.2819C35.1539 24.1629 35.0089 23.1429 34.8469 22.0069Z" fill="#9CA3AF"/>
</svg>
