<svg width="85" height="75" viewBox="0 0 85 75" fill="none" xmlns="http://www.w3.org/2000/svg">
<path d="M69.4277 24.3046C68.5312 24.0033 67.6348 23.7187 66.7383 23.4509C66.8877 22.8315 67.0205 22.2121 67.1533 21.5927C69.1953 11.6156 67.8506 3.59704 63.3184 0.952097C58.9521 -1.57567 51.8301 1.05254 44.625 7.38032C43.9111 7.99971 43.2139 8.65258 42.5498 9.30544C42.1016 8.8702 41.6367 8.43496 41.1719 8.01645C33.6182 1.25342 26.0479 -1.59241 21.5156 1.06928C17.166 3.61379 15.8711 11.1636 17.6973 20.6051C17.8799 21.5425 18.0791 22.4632 18.3115 23.4007C17.249 23.702 16.2031 24.0368 15.2236 24.3883C6.3584 27.4853 0 32.3734 0 37.4289C0 42.6519 6.77344 47.8916 15.9873 51.0722C16.7344 51.3233 17.4814 51.5744 18.2451 51.792C17.9961 52.7964 17.7803 53.7841 17.5811 54.8052C15.8379 64.096 17.1992 71.4617 21.5488 73.9895C26.0312 76.601 33.5684 73.9225 40.9062 67.4441C41.4873 66.9251 42.0684 66.3895 42.6494 65.8203C43.3799 66.5401 44.1436 67.2265 44.9072 67.8961C52.0127 74.0564 59.0352 76.5507 63.3682 74.023C67.8506 71.4115 69.3115 63.4934 67.4189 53.8511C67.2695 53.1145 67.1035 52.3612 66.9209 51.5911C67.4521 51.4405 67.9668 51.2731 68.4814 51.1057C78.0605 47.9083 85 42.7356 85 37.4289C85 32.3567 78.459 27.4351 69.4277 24.3046ZM46.9658 10.0922C53.1416 4.66842 58.9023 2.54241 61.5254 4.06577C64.3311 5.68957 65.4102 12.2517 63.6504 20.8729C63.5342 21.4421 63.418 21.9945 63.2686 22.5469C59.583 21.7099 55.8477 21.1073 52.0957 20.7725C49.9375 17.6588 47.5801 14.679 45.0234 11.8834C45.6709 11.264 46.3018 10.6781 46.9658 10.0922ZM27.7578 46.1171C28.6045 47.5735 29.4678 49.0299 30.3809 50.4528C27.791 50.1682 25.2178 49.7497 22.6777 49.1973C23.4082 46.7867 24.3213 44.2924 25.3838 41.7479C26.1475 43.221 26.9277 44.6774 27.7578 46.1171ZM22.7275 25.9787C25.1182 25.443 27.6582 25.0077 30.2979 24.6729C29.418 26.0624 28.5547 27.4853 27.7412 28.9249C26.9277 30.3478 26.1309 31.8042 25.3838 33.2774C24.3379 30.7831 23.458 28.339 22.7275 25.9787ZM27.2764 37.5126C28.3721 35.2025 29.5674 32.9426 30.8291 30.7161C32.0908 28.4897 33.4521 26.3302 34.8799 24.2042C37.3701 24.0201 39.9102 23.9196 42.5 23.9196C45.0898 23.9196 47.6465 24.0201 50.1201 24.2042C51.5312 26.3135 52.876 28.4729 54.1543 30.6827C55.4326 32.8924 56.6279 35.1523 57.7568 37.4457C56.6445 39.7558 55.4492 42.0325 54.1709 44.2757C52.9092 46.5021 51.5645 48.6616 50.1533 50.8043C47.6797 50.9885 45.1064 51.0722 42.5 51.0722C39.8936 51.0722 37.3701 50.9885 34.9297 50.8378C33.4854 48.7118 32.124 46.5356 30.8457 44.3092C29.5674 42.0827 28.3887 39.8228 27.2764 37.5126ZM57.2588 46.0836C58.1055 44.6105 58.9023 43.1206 59.6826 41.614C60.7451 44.0413 61.6748 46.5021 62.4883 49.0299C59.915 49.6158 57.3086 50.0678 54.6855 50.3691C55.582 48.9629 56.4287 47.5233 57.2588 46.0836ZM59.6494 33.2774C58.8691 31.8042 58.0723 30.3311 57.2422 28.8915C56.4287 27.4685 55.582 26.0624 54.7021 24.6729C57.375 25.0077 59.9316 25.4597 62.3223 26.0121C61.5586 28.4897 60.6621 30.9003 59.6494 33.2774ZM42.5332 14.4447C44.2764 16.3531 45.9199 18.3619 47.4473 20.4377C44.1602 20.287 40.8564 20.287 37.5693 20.4377C39.1963 18.2782 40.8731 16.2694 42.5332 14.4447ZM23.2754 4.18295C26.0645 2.54241 32.2568 4.88604 38.7812 10.7116C39.1963 11.0799 39.6113 11.4817 40.043 11.8834C37.4697 14.679 35.0957 17.6588 32.9209 20.7725C29.1689 21.1073 25.4502 21.6932 21.7647 22.5134C21.5488 21.6597 21.3662 20.7892 21.1836 19.9187C19.623 11.8165 20.6523 5.70631 23.2754 4.18295ZM19.208 48.3101C18.5107 48.1092 17.8301 47.8916 17.1494 47.6572C13.6133 46.5356 9.5957 44.7611 6.69043 42.4343C5.01367 41.2624 3.88477 39.4545 3.56934 37.4289C3.56934 34.3655 8.81543 30.4483 16.3857 27.7866C17.332 27.4518 18.2949 27.1505 19.2578 26.8659C20.3867 30.4985 21.748 34.0642 23.3252 37.5126C21.7314 41.0113 20.3535 44.6272 19.208 48.3101ZM38.5654 64.7154C35.8262 67.2432 32.6553 69.252 29.2021 70.6247C27.3594 71.5119 25.2344 71.5956 23.3418 70.8423C20.7022 69.3022 19.6064 63.393 21.1006 55.4414C21.2832 54.5039 21.4824 53.5665 21.7148 52.6458C25.4336 53.4493 29.1855 54.0017 32.9873 54.2863C35.1787 57.4167 37.5859 60.4132 40.1592 63.2256C39.6279 63.7445 39.0967 64.2467 38.5654 64.7154ZM42.6328 60.6476C40.9394 58.8061 39.2461 56.7638 37.6025 54.5709C39.1963 54.6378 40.8398 54.6713 42.5 54.6713C44.21 54.6713 45.8867 54.6378 47.5469 54.5541C46.0195 56.6801 44.376 58.7057 42.6328 60.6476ZM64.3311 65.6696C64.1816 67.7119 63.1855 69.6203 61.5918 70.9093C58.9521 72.4494 53.3242 70.4406 47.248 65.1842C46.5508 64.5815 45.8535 63.9286 45.1396 63.259C47.6797 60.4299 50.0205 57.4335 52.1455 54.2863C55.9473 53.9682 59.7324 53.3823 63.4678 52.5286C63.6338 53.2149 63.7832 53.9013 63.916 54.5709C64.7295 58.1868 64.8623 61.9533 64.3311 65.6696ZM67.3525 47.6739C66.8877 47.8246 66.4229 47.9753 65.9414 48.1092C64.7793 44.4598 63.3516 40.8942 61.708 37.4289C63.3018 34.0139 64.6465 30.4985 65.7754 26.8994C66.6387 27.1505 67.4688 27.4183 68.2656 27.6862C76.002 30.3646 81.4307 34.3487 81.4307 37.3955C81.4307 40.6765 75.6367 44.9118 67.3525 47.6739ZM42.5 45.1629C46.7002 45.1629 50.1035 41.7312 50.1035 37.4959C50.1035 33.2606 46.7002 29.8289 42.5 29.8289C38.2998 29.8289 34.8965 33.2606 34.8965 37.4959C34.8965 41.7312 38.2998 45.1629 42.5 45.1629Z" fill="#9CA3AF" fill-opacity="0.8"/>
</svg>
