<svg width="84" height="73" viewBox="0 0 84 73" fill="none" xmlns="http://www.w3.org/2000/svg">
<path d="M56.749 0L56.4865 2.72461C56.0805 7.88812 56.2275 9.3654 57.3405 11.2817L58.415 13.0516L57.302 22.9327C56.637 28.8279 55.8215 33.7684 55.3035 35.392C54.859 36.7927 54.341 38.8553 54.229 39.9632C54.0435 41.2872 53.4135 42.6182 52.451 43.7958C51.6005 44.7574 49.931 47.3357 48.748 49.4053C47.803 51.0986 47.152 52.1369 46.7985 52.5828L45.6435 54.4016C45.2725 55.5862 45.0625 56.5408 44.982 57.2656C44.9015 58.0112 44.947 58.5059 45.066 58.8683C45.1815 59.2167 45.381 59.4606 45.654 59.6139C45.9772 59.7647 46.3098 59.8187 46.641 59.7741C47.3902 59.6722 48.1318 59.4106 48.853 58.9937C49.098 58.8613 49.2905 58.7359 49.4585 58.6244C49.7175 57.9903 50.316 56.7917 51.3765 54.7082C54.1905 49.1823 55.265 46.1581 54.1555 46.9734C53.746 47.266 53.9315 46.5274 54.635 45.0501C56.119 42.1722 56.9695 37.824 58.7475 24.187C60.1545 13.421 60.1545 13.2677 61.1905 13.2677C61.677 13.2677 63.0525 13.4349 63.0525 13.4349V0H59.8955H56.749ZM70.1855 22.0547C69.9615 22.0547 69.5905 22.7236 69.37 23.4623C68.964 24.7863 69.4435 25.5946 75.5545 33.19C79.184 37.7682 82.11 41.6705 82.0365 41.9701C81.963 42.1861 78.9985 46.0257 75.446 50.4505C68.999 58.4084 68.964 58.485 69.5555 60.1086C70.2975 62.0249 69.5555 62.6869 77.924 52.2902L84 44.5484V38.7229L77.2205 30.3888C73.556 25.8176 70.371 22.1313 70.1855 22.0547ZM13.888 22.87C13.7025 22.87 10.5175 26.6329 6.853 31.1274L0 39.4615V45.287L6.8145 53.7675C10.5945 58.4084 13.7795 62.2479 13.9265 62.2479C14.0735 62.2479 14.371 61.5789 14.6685 60.7706C15.113 59.37 14.7385 58.7777 8.4805 50.8895C2.52 43.4404 1.89 42.4091 2.485 41.6008C2.856 41.0851 5.67 37.6149 8.708 33.859C15.6345 25.3786 15.2635 25.9639 14.707 24.194C14.4865 23.4623 14.112 22.8003 13.8915 22.87H13.888ZM44.282 23.0303C43.26 23.0163 41.062 26.1172 34.482 36.8136C34.1985 38.1585 34.174 39.0852 34.3035 39.6845C34.3875 40.0956 34.5415 40.3813 34.755 40.5904C34.965 40.7994 35.238 40.9249 35.539 40.9737C36.1375 41.0782 36.8445 40.89 37.415 40.667L37.8 40.4928C37.9318 40.141 38.1048 39.8587 38.304 39.6706C38.71 39.2246 40.4145 36.1307 42.119 32.8138C45.1185 26.7653 45.822 24.0337 44.6005 23.1487C44.5003 23.0693 44.3898 23.0291 44.282 23.0303ZM51.968 27.2321C51.0685 27.2809 49.448 29.3575 46.6725 33.7684C45.2795 36.0192 44.3975 37.2317 43.925 37.4825L42.091 40.3674C41.4015 42.876 41.3 44.4299 41.482 45.287C41.5276 45.4985 41.5937 45.6898 41.6766 45.8501C41.7595 46.0104 41.8575 46.1364 41.965 46.2208C42.2324 46.431 42.5175 46.5374 42.805 46.5344C43.492 46.5198 44.1748 46.3205 44.835 45.9421C45.1791 45.7582 45.5189 45.5443 45.8535 45.301L45.955 45.2174L46.1405 45.0222C46.4905 44.1233 47.2955 42.43 48.3035 40.4789C51.4885 34.3607 53.116 30.0125 52.7835 28.3889C52.633 27.6015 52.374 27.2043 51.968 27.2321ZM43.484 34.7579C43.225 34.8137 42.644 35.7056 41.5975 37.5313C40.0855 40.1932 38.437 41.7262 37.8665 41.0433C37.7339 41.103 37.6009 41.1587 37.4675 41.2106C36.8865 41.4405 36.162 41.6287 35.5145 41.5241C35.2094 41.4874 34.9104 41.3385 34.6325 41.0851C34.3704 40.8466 34.1612 40.4252 34.0445 39.9005C33.915 39.2734 33.915 38.4929 34.062 37.4965L31.787 41.2175L26.6385 49.698V63.4464L43.5085 36.9878C43.5052 36.6981 43.5241 36.4091 43.5645 36.1307C43.694 35.1969 43.687 34.7231 43.484 34.7649V34.7579ZM50.743 39.2107C50.4875 39.2107 50.0605 39.9284 49.378 41.3708C48.4505 43.3429 46.991 45.2522 46.2175 45.6424L46.0985 45.7678C45.9715 45.8723 45.8431 45.9698 45.7135 46.0605C45.5035 46.1999 45.2305 46.3671 44.9155 46.5344C44.2855 46.8758 43.5015 47.1894 42.8015 47.1545C42.4715 47.1537 42.1447 47.0259 41.839 46.7783C41.5509 46.5418 41.3201 46.0922 41.195 45.524C40.992 44.5554 41.0725 43.1965 41.517 41.2663L26.635 64.6032V73H33.173L47.04 51.3146C47.4005 50.5202 47.943 49.4332 48.6745 48.0744C50.6345 44.4578 51.079 43.2105 51.079 41.3639C51.079 39.9284 50.9985 39.2037 50.743 39.2037V39.2107ZM54.0435 52.7989L52.857 55.1542C52.192 56.4085 51.0055 57.9554 50.1935 58.6174L50.0325 58.7568L50.022 58.7916L49.987 58.8613C49.9555 58.9101 49.9415 58.917 49.917 58.938C49.5929 59.1822 49.2635 59.3984 48.93 59.586C48.1884 60.0158 47.4256 60.2845 46.655 60.3874C46.2906 60.4339 45.9248 60.3704 45.57 60.1992C45.2621 60.0642 44.9902 59.7067 44.807 59.1958C44.639 58.6801 44.59 57.9903 44.6845 57.1401C44.7597 56.5349 44.8713 55.9499 45.017 55.398L33.8275 73H48.7095L50.4875 68.9444C52.9305 63.2722 54.0435 59.2167 54.0435 55.7465V52.7989Z" fill="#9CA3AF" fill-opacity="0.8"/>
</svg>
