<svg width="74" height="62" viewBox="0 0 74 62" fill="none" xmlns="http://www.w3.org/2000/svg">
<path d="M0 31V57C0 59.7614 2.23858 62 5 62H69C71.7614 62 74 59.7614 74 57V5C74 2.23858 71.7614 0 69 0H5C2.23858 0 0 2.23858 0 5V31ZM59.6313 28.5268C59.6308 28.5272 59.631 28.5279 59.6316 28.5281C61.5109 28.9214 62.942 29.6285 64.2667 30.7675C64.9419 31.372 65.9525 32.4822 66.0381 32.7554C66.0612 32.8367 62.8468 34.6425 60.8951 35.6519C60.8234 35.6926 60.5343 35.4407 60.2198 35.0455C59.2694 33.8849 58.2681 33.3812 56.7395 33.2901C54.4987 33.1681 53.0534 34.1484 53.0649 35.7934C53.0534 36.1964 53.1621 36.6013 53.3771 36.9539C53.872 37.8122 54.7993 38.3257 57.6645 39.3661C62.9648 41.2726 65.2287 42.5339 66.637 44.3203C68.2141 46.3179 68.5633 49.507 67.5042 51.8882C66.3248 54.4612 63.4087 56.2166 59.3133 56.792C58.0484 56.9838 55.0375 56.9528 53.6754 56.7416C50.7016 56.2979 47.8826 55.0657 46.1482 53.4517C45.4614 52.8259 44.1364 51.181 44.2219 51.0706C44.2589 51.0299 44.5596 50.8691 44.8972 50.7063C45.2348 50.5436 46.4743 49.9391 47.6444 49.3733L49.1369 48.6464C49.5112 48.4641 49.9617 48.5647 50.2229 48.8889V48.8889C50.8496 49.6852 52.2093 50.7761 53.0302 51.1384C55.3913 52.1885 58.6311 52.0374 60.2337 50.8361C60.8835 50.3828 61.2466 49.6852 61.198 48.98C61.198 48.2631 61.0893 47.9415 60.643 47.4048C60.0649 46.7189 58.8971 46.1338 55.5601 44.9229C51.7422 43.5395 50.0911 42.6928 48.5995 41.3307C47.6606 40.4317 46.9623 39.3739 46.5645 38.2327C46.287 37.355 46.2153 35.154 46.4327 34.2763C47.2166 31.1782 50.0101 29.0296 54.02 28.3941C55.3215 28.183 58.3537 28.2623 59.631 28.5255C59.6316 28.5256 59.6317 28.5264 59.6313 28.5268V28.5268ZM42.2632 31.1221V31.1221C42.276 32.5169 41.1488 33.6544 39.754 33.6544H37.4463C34.7975 33.6544 32.6502 35.8017 32.6502 38.4505V53.1838C32.6502 55.0663 31.1241 56.5924 29.2416 56.5924V56.5924C27.359 56.5924 25.8329 55.0663 25.8329 53.1838V38.4655C25.8329 35.8084 23.6789 33.6544 21.0218 33.6544H18.6926C17.3218 33.6544 16.2106 32.5432 16.2106 31.1724V31.1724C16.2106 30.392 16.2224 29.6862 16.241 29.2136C16.2568 28.8095 16.4974 28.5948 16.9018 28.5885C18.5772 28.5622 23.5206 28.5509 29.2901 28.5587L39.6937 28.5837C41.0993 28.587 42.2427 29.7166 42.2632 31.1221V31.1221Z" fill="#9CA3AF" fill-opacity="0.8"/>
</svg>
